<svg width="11" height="11" viewBox="0 0 11 11" fill="none" xmlns="http://www.w3.org/2000/svg">
<path d="M10.1228 6.96333C9.4512 6.96333 8.80142 6.85412 8.19531 6.65754C8.0042 6.59202 7.79125 6.64116 7.64382 6.78859L6.78654 7.86429C5.24125 7.12714 3.79425 5.73474 3.02433 4.13485L4.08911 3.22842C4.23654 3.07553 4.28022 2.86258 4.22016 2.67146C4.01812 2.06536 3.91437 1.41557 3.91437 0.743947C3.91437 0.449086 3.66866 0.203369 3.3738 0.203369H1.4845C1.18964 0.203369 0.834717 0.334418 0.834717 0.743947C0.834717 5.81664 5.05559 10.0321 10.1228 10.0321C10.5105 10.0321 10.6634 9.68806 10.6634 9.38774V7.5039C10.6634 7.20904 10.4177 6.96333 10.1228 6.96333Z" fill="black"/>
</svg>
