<svg width="15" height="16" viewBox="0 0 15 23" fill="none" xmlns="http://www.w3.org/2000/svg">
<path d="M7.60268 0.970703C3.7176 0.970703 0.556641 4.13166 0.556641 8.01675C0.556641 11.902 3.7176 15.0628 7.60268 15.0628C11.488 15.0628 14.6487 11.902 14.6487 8.01675C14.6487 4.13166 11.488 0.970703 7.60268 0.970703ZM7.60268 13.762C4.43479 13.762 1.85745 11.1847 1.85745 8.01678C1.85745 4.84888 4.43479 2.27151 7.60268 2.27151C10.7706 2.27151 13.3479 4.84885 13.3479 8.01675C13.3479 11.1846 10.7706 13.762 7.60268 13.762Z" fill="white"/>
 <path d="M16.3666 18.86L12.6376 15.131C12.3835 14.8769 11.972 14.8769 11.7179 15.131C11.4638 15.3849 11.4638 15.7968 11.7179 16.0507L15.4469 19.7797C15.5739 19.9067 15.7402 19.9702 15.9067 19.9702C16.073 19.9702 16.2395 19.9067 16.3666 19.7797C16.6207 19.5258 16.6207 19.1139 16.3666 18.86Z"
          fill="white"
        />
</svg>
