<svg width="12" height="15" viewBox="0 0 12 15" fill="none" xmlns="http://www.w3.org/2000/svg">
<path d="M9.38312 10.3426C8.93978 10.3426 8.54312 10.5426 8.23978 10.856L4.08062 8.0887C4.10978 7.93533 4.13312 7.78196 4.13312 7.62192C4.13312 7.46188 4.10978 7.30851 4.08062 7.15514L8.19312 4.41446C8.50812 4.74788 8.92228 4.9546 9.38312 4.9546C10.3515 4.9546 11.1331 4.06104 11.1331 2.9541C11.1331 1.84717 10.3515 0.953613 9.38312 0.953613C8.41478 0.953613 7.63312 1.84717 7.63312 2.9541C7.63312 3.11414 7.65645 3.26751 7.68562 3.42089L3.57312 6.16156C3.25812 5.82814 2.84395 5.62143 2.38312 5.62143C1.41478 5.62143 0.633118 6.51498 0.633118 7.62192C0.633118 8.72885 1.41478 9.62241 2.38312 9.62241C2.84395 9.62241 3.25812 9.41569 3.57312 9.08227L7.72645 11.8563C7.69728 11.9963 7.67978 12.143 7.67978 12.2897C7.67978 13.3633 8.44395 14.2369 9.38312 14.2369C10.3223 14.2369 11.0865 13.3633 11.0865 12.2897C11.0865 11.2161 10.3223 10.3426 9.38312 10.3426Z" fill="white"/>
</svg>
